<?xml version="1.0" encoding="UTF-8" standalone="no" ?>
<!DOCTYPE svg PUBLIC "-//W3C//DTD SVG 1.1//EN" "http://www.w3.org/Graphics/SVG/1.1/DTD/svg11.dtd">
<svg xmlns="http://www.w3.org/2000/svg" xmlns:xlink="http://www.w3.org/1999/xlink" version="1.1" width="1280" height="1024" viewBox="0 0 1280 1024" xml:space="preserve">
<desc>Created with Fabric.js 5.3.0</desc>
<defs>
</defs>
<g transform="matrix(1 0 0 1 640 512)" id="background-logo"  >
<rect style="stroke: none; stroke-width: 0; stroke-dasharray: none; stroke-linecap: butt; stroke-dashoffset: 0; stroke-linejoin: miter; stroke-miterlimit: 4; fill: rgb(255,255,255); fill-opacity: 0; fill-rule: nonzero; opacity: 1;"  paint-order="stroke"  x="-640" y="-512" rx="0" ry="0" width="1280" height="1024" />
</g>
<g transform="matrix(1.2776576155093458 0 0 1.2776576155093458 260.77412906252675 511.87217435809964)" id="logo-logo"  >
<g style=""  paint-order="stroke"   >
		<g transform="matrix(0.8009450098341586 0 0 -0.8009450098341586 -98.48203585768158 -51.15996203065197)"  >
<path style="stroke: none; stroke-width: 1; stroke-dasharray: none; stroke-linecap: butt; stroke-dashoffset: 0; stroke-linejoin: miter; stroke-miterlimit: 4; fill: rgb(55,182,255); fill-rule: nonzero; opacity: 1;"  paint-order="stroke"  transform=" translate(0.0024999999999995026, -12.384)" d="M 0 0 C 6.834 0.001 12.377 5.545 12.377 12.382 C 12.377 19.224 6.834 24.767 0 24.768 C -6.84 24.767 -12.382 19.224 -12.382 12.382 C -12.382 5.545 -6.84 0.001 0 0" stroke-linecap="round" />
</g>
		<g transform="matrix(0.8009450098341586 0 0 -0.8009450098341586 -65.01823296880644 -51.15996203065197)"  >
<path style="stroke: none; stroke-width: 1; stroke-dasharray: none; stroke-linecap: butt; stroke-dashoffset: 0; stroke-linejoin: miter; stroke-miterlimit: 4; fill: rgb(55,182,255); fill-rule: nonzero; opacity: 1;"  paint-order="stroke"  transform=" translate(-15.085499999999998, -12.384)" d="M 0 0 L 30.173 0 C 34.658 0 38.297 5.544 38.297 12.382 C 38.297 19.224 34.657999999999994 24.768 30.172999999999995 24.768 L 0 24.768 C -4.486 24.768 -8.126 19.224 -8.126 12.382000000000001 C -8.126 5.544 -4.486 0 0 0" stroke-linecap="round" />
</g>
		<g transform="matrix(0.8009450098341586 0 0 -0.8009450098341586 -106.85952018804193 3.012113898483335)"  >
<path style="stroke: none; stroke-width: 1; stroke-dasharray: none; stroke-linecap: butt; stroke-dashoffset: 0; stroke-linejoin: miter; stroke-miterlimit: 4; fill: rgb(55,182,255); fill-rule: nonzero; opacity: 1;"  paint-order="stroke"  transform=" translate(0.0030000000000001137, 12.3845)" d="M 0 0 C -6.84 -0.001 -12.382 -5.545 -12.382 -12.386 C -12.382 -19.224 -6.84 -24.768 0 -24.769 C 6.834 -24.767999999999997 12.376 -19.223999999999997 12.376 -12.386 C 12.376 -5.545 6.834 -0.001 0 0" stroke-linecap="round" />
</g>
		<g transform="matrix(0.8009450098341586 0 0 -0.8009450098341586 -73.39531682666194 3.0118736149803738)"  >
<path style="stroke: none; stroke-width: 1; stroke-dasharray: none; stroke-linecap: butt; stroke-dashoffset: 0; stroke-linejoin: miter; stroke-miterlimit: 4; fill: rgb(55,182,255); fill-rule: nonzero; opacity: 1;"  paint-order="stroke"  transform=" translate(-23.2115, -0.0015000000000000568)" d="M 0 0 C 0 -6.838 3.64 -12.383 8.126 -12.383 L 38.299 -12.383 C 42.784 -12.383 46.423 -6.837999999999999 46.423 0 C 46.423 6.841 42.784 12.386 38.299 12.386 L 8.126 12.386 C 3.64 12.386 0 6.841 0 0" stroke-linecap="round" />
</g>
		<g transform="matrix(0.8009450098341586 0 0 -0.8009450098341586 -86.19561950132652 53.83295581197149)"  >
<path style="stroke: none; stroke-width: 1; stroke-dasharray: none; stroke-linecap: butt; stroke-dashoffset: 0; stroke-linejoin: miter; stroke-miterlimit: 4; fill: rgb(55,182,255); fill-rule: nonzero; opacity: 1;"  paint-order="stroke"  transform=" translate(0.0024999999999995026, 12.3835)" d="M 0 0 C -6.84 0 -12.382 -5.545 -12.382 -12.385 C -12.382 -19.223 -6.84 -24.767 0 -24.767 C 6.834 -24.767 12.377 -19.223 12.377 -12.385 C 12.377 -5.545 6.834 0 0 0" stroke-linecap="round" />
</g>
		<g transform="matrix(0.8009450098341586 0 0 -0.8009450098341586 -52.731576328948506 53.83295581197149)"  >
<path style="stroke: none; stroke-width: 1; stroke-dasharray: none; stroke-linecap: butt; stroke-dashoffset: 0; stroke-linejoin: miter; stroke-miterlimit: 4; fill: rgb(55,182,255); fill-rule: nonzero; opacity: 1;"  paint-order="stroke"  transform=" translate(15.087499999999999, 12.3835)" d="M 0 0 L -30.173 0 C -34.659 0 -38.299 -5.545 -38.299 -12.385 C -38.299 -19.225 -34.659 -24.767 -30.173000000000002 -24.767 L 0 -24.767 C 4.485 -24.767 8.124 -19.225 8.124 -12.385 C 8.124 -5.545 4.485 0 0 0" stroke-linecap="round" />
</g>
		<g transform="matrix(0.8009450098341586 0 0 -0.8009450098341586 32.07648603734128 0)"  >
<path style="stroke: none; stroke-width: 1; stroke-dasharray: none; stroke-linecap: butt; stroke-dashoffset: 0; stroke-linejoin: miter; stroke-miterlimit: 4; fill: rgb(0,0,0); fill-rule: nonzero; opacity: 1;"  paint-order="stroke"  transform=" translate(78.68250000000003, -17.258000000000024)" d="M 0 0 C -7.462 0 -13.51 6.049 -13.51 13.51 C -13.51 20.971 -7.462 27.02 0 27.02 C 7.462 27.02 13.51 20.971 13.51 13.51 C 13.51 6.049 7.462 0 0 0 M -26.147 -61.533 C -33.608999999999995 -61.533 -39.657 -55.484 -39.657 -48.023 C -39.657 -40.56400000000001 -33.608999999999995 -34.515 -26.147 -34.515 C -18.686 -34.515 -12.637999999999998 -40.564 -12.637999999999998 -48.022999999999996 C -12.637999999999998 -55.483999999999995 -18.686 -61.532999999999994 -26.147 -61.532999999999994 M -92.801 0.643 C -98.399 0.643 -102.926 6.42 -102.926 13.558 C -102.926 20.667 -98.399 26.444 -92.801 26.444 L -36.058 26.444 C -33.269 26.444 -30.727 24.997999999999998 -28.892 22.676 C -27.04 20.325 -25.91 17.104999999999997 -25.91 13.557999999999998 C -25.91 6.419999999999998 -30.459 0.6429999999999989 -36.058 0.6429999999999989 z M -52.992000000000004 90.471 C -45.531000000000006 90.471 -39.482000000000006 84.422 -39.482000000000006 76.961 C -39.482000000000006 69.5 -45.531000000000006 63.452 -52.992000000000004 63.452 C -60.45400000000001 63.452 -66.50200000000001 69.5 -66.50200000000001 76.961 C -66.50200000000001 84.422 -60.45400000000001 90.471 -52.99200000000001 90.471 M -80.537 131.39600000000002 C -82.772 131.525 -85.02000000000001 131.61 -87.287 131.61 C -89.554 131.61 -91.801 131.525 -94.036 131.39600000000002 L -100.349 131.39600000000002 C -113.863 131.39600000000002 -126.46000000000001 127.28500000000001 -137.094 120.21500000000002 C -141.25 117.45200000000001 -145.11599999999999 114.25000000000001 -148.607 110.64400000000002 C -156 102.98600000000002 -150.61599999999999 89.73700000000002 -140.24 89.73700000000002 L -92.971 89.73700000000002 C -90.166 89.73700000000002 -87.644 88.29100000000003 -85.809 85.94700000000002 C -83.975 83.62500000000001 -82.846 80.39100000000002 -82.846 76.82900000000002 C -82.846 69.70600000000002 -87.37700000000001 63.93600000000002 -92.971 63.93600000000002 L -168.935 63.93600000000002 C -168.931 63.96900000000002 -168.927 64.00000000000001 -168.937 63.93600000000002 C -172.96800000000002 63.47200000000002 -176.638 61.14300000000002 -179.366 58.279000000000025 C -182.5 54.98800000000003 -184.43 50.45800000000003 -184.43 45.450000000000024 C -184.43 36.12500000000003 -177.725 27.470000000000024 -169.09 26.444000000000024 L -135.598 26.444000000000024 C -132.80700000000002 26.444000000000024 -130.26700000000002 24.998000000000022 -128.43300000000002 22.676000000000023 C -126.59800000000003 20.325000000000024 -125.46900000000002 17.105000000000025 -125.46900000000002 13.558000000000023 C -125.46900000000002 6.420000000000023 -130.00000000000003 0.6430000000000238 -135.598 0.6430000000000238 L -169.03000000000003 0.6430000000000238 C -169.03600000000003 0.7140000000000237 -169.04300000000003 0.7930000000000238 -169.03300000000002 0.6430000000000238 C -172.68 0.12200000000002376 -175.911 -2.462999999999976 -178.39300000000003 -5.069999999999976 C -181.37500000000003 -8.196999999999976 -183.22700000000003 -12.507999999999976 -183.22700000000003 -17.279999999999976 C -183.22700000000003 -26.847999999999978 -174.61000000000004 -34.86299999999997 -165.51400000000004 -34.86299999999997 L -165.07600000000005 -34.98099999999997 L -114.88800000000005 -34.98099999999997 C -112.09900000000005 -34.98099999999997 -109.55600000000005 -36.427999999999976 -107.72200000000005 -38.74999999999997 C -105.88700000000006 -41.09399999999997 -104.76100000000005 -44.327999999999975 -104.76100000000005 -47.89099999999997 C -104.76100000000005 -55.01399999999997 -109.28900000000006 -60.78299999999997 -114.88800000000005 -60.78299999999997 L -142.59000000000006 -60.78299999999997 C -150.27000000000007 -60.78299999999997 -155.37000000000006 -69.10399999999997 -152.20100000000005 -76.46299999999997 C -152.11500000000004 -76.66399999999996 -152.02000000000004 -76.85799999999996 -151.93300000000005 -77.05899999999997 C -133.54100000000005 -89.68799999999997 -111.28200000000004 -97.09399999999997 -87.28700000000005 -97.09399999999997 C -24.132000000000048 -97.09399999999997 27.064999999999955 -45.895999999999965 27.064999999999955 17.258000000000038 C 27.064999999999955 78.14500000000004 -20.527000000000044 127.90000000000003 -80.53700000000005 131.39600000000004" stroke-linecap="round" />
</g>
</g>
</g>
<g transform="matrix(1.9211538461538462 0 0 1.9211538461538462 820.2752793991492 490.76321846412924)" id="text-logo"  >
<g style=""  paint-order="stroke"   >
		<g transform="matrix(1 0 0 1 0 0)" id="text-logo-path-0"  >
<path style="stroke: none; stroke-width: 0; stroke-dasharray: none; stroke-linecap: butt; stroke-dashoffset: 0; stroke-linejoin: miter; stroke-miterlimit: 4; fill: rgb(0,0,0); fill-rule: nonzero; opacity: 1;"  paint-order="stroke"  transform=" translate(-180.85, 17.5)" d="M 2.5 0 L 11 0 L 11 -35 L 2.5 -35 Z M 44.05 0.5 C 56 0.5 62 -5.3 62 -17.55 C 62 -29.55 56.4 -35.5 44.05 -35.5 C 32 -35.5 26 -29.9 26 -17.55 C 26 -5.5 31.65 0.5 44.05 0.5 Z M 34.5 -17.55 C 34.5 -24.9 37.5 -28.5 44.05 -28.5 C 50.3 -28.5 53.5 -25 53.5 -17.55 C 53.5 -10.15 50.6 -6.5 44.05 -6.5 C 37.65 -6.5 34.5 -9.95 34.5 -17.55 Z M 88 0 L 96.5 0 L 96.5 -28 L 107.5 -28 L 107.5 -35 L 77 -35 L 77 -28 L 88 -28 Z M 139.15 0 L 148.35 0 L 156.5 -19.45 L 156.5 0 L 165 0 L 165 -35 L 154.5 -35 L 143.75 -9.3 L 133 -35 L 122.5 -35 L 122.5 0 L 131 0 L 131 -19.45 Z M 180 0 L 188.5 0 L 188.5 -35 L 180 -35 Z M 226.5 0 L 237 0 L 237 -35 L 228.5 -35 L 228.5 -10.85 L 214 -35 L 203.5 -35 L 203.5 0 L 212 0 L 212 -24.15 Z M 252 0 L 260.5 0 L 260.5 -35 L 252 -35 Z M 298.5 0 L 309 0 L 309 -35 L 300.5 -35 L 300.5 -10.85 L 286 -35 L 275.5 -35 L 275.5 0 L 284 0 L 284 -24.15 Z M 342.05 0.5 C 353.2 0.5 358.9 -3.45 359.15 -11.45 L 359.15 -18.45 L 343.1 -18.45 L 343.1 -11.45 L 350.6 -11.45 C 350.25 -8.15 346.45 -6.5 342.05 -6.5 C 335.6 -6.5 332.5 -9.8 332.5 -17.55 C 332.5 -25 335.4 -28.5 342.05 -28.5 C 346.9 -28.5 350.7 -27 350.7 -23 L 359.2 -23 C 358.6 -31.35 352.05 -35.5 342.05 -35.5 C 329.85 -35.5 324 -30 324 -17.55 C 324 -5.35 329.5 0.5 342.05 0.5 Z" stroke-linecap="round" />
</g>
</g>
</g>
<g transform="matrix(1.9211538461538462 0 0 1.9211538461538462 813.7265383569904 561.3438456454448)" id="tagline-2091dfb2-845b-4d80-a4bf-aac084cacf70-logo"  >
<g style=""  paint-order="stroke"   >
		<g transform="matrix(1 0 0 1 0 0)" id="tagline-2091dfb2-845b-4d80-a4bf-aac084cacf70-logo-path-0"  >
<path style="stroke: none; stroke-width: 0; stroke-dasharray: none; stroke-linecap: butt; stroke-dashoffset: 0; stroke-linejoin: miter; stroke-miterlimit: 4; fill: rgb(0,0,0); fill-rule: nonzero; opacity: 1;"  paint-order="stroke"  transform=" translate(-184.40999999999997, 6.98)" d="M 12.6 -2.93 L 12.6 -0.59 Q 10.79 0.1 8.5 0.1 L 8.5 0.1 Q 0.98 0.1 0.98 -7.18 L 0.98 -7.18 Q 0.98 -14.06 8.5 -14.06 L 8.5 -14.06 Q 10.79 -14.06 12.6 -13.38 L 12.6 -13.38 L 12.6 -11.04 Q 10.79 -11.82 8.69 -11.82 L 8.69 -11.82 Q 3.66 -11.82 3.66 -7.18 L 3.66 -7.18 Q 3.66 -2.15 8.69 -2.15 L 8.69 -2.15 Q 10.79 -2.15 12.6 -2.93 L 12.6 -2.93 Z M 27.96 -7.02 L 27.96 -7.02 Q 27.96 -2.15 32.28 -2.15 L 32.28 -2.15 Q 36.5 -2.15 36.5 -7.02 L 36.5 -7.02 Q 36.5 -11.82 32.28 -11.82 L 32.28 -11.82 Q 27.96 -11.82 27.96 -7.02 Z M 25.27 -6.96 L 25.27 -6.96 Q 25.27 -14.06 32.28 -14.06 L 32.28 -14.06 Q 39.19 -14.06 39.19 -6.96 L 39.19 -6.96 Q 39.19 0.1 32.28 0.1 L 32.28 0.1 Q 25.58 0.1 25.27 -6.96 Z M 54.84 0 L 52.35 0 L 52.35 -13.96 L 54.94 -13.96 L 62.31 -3.79 L 62.31 -13.96 L 64.8 -13.96 L 64.8 0 L 62.21 0 L 54.84 -10.39 L 54.84 0 Z M 80.94 0 L 78.45 0 L 78.45 -13.96 L 81.04 -13.96 L 88.41 -3.79 L 88.41 -13.96 L 90.9 -13.96 L 90.9 0 L 88.31 0 L 80.94 -10.39 L 80.94 0 Z M 104.55 -13.96 L 114.11 -13.96 L 114.11 -11.74 L 107.12 -11.74 L 107.12 -8.22 L 113.78 -8.22 L 113.78 -5.91 L 107.09 -5.91 L 107.09 -2.25 L 114.25 -2.25 L 114.25 0 L 104.55 0 L 104.55 -13.96 Z M 138.49 -2.93 L 138.49 -0.59 Q 136.69 0.1 134.39 0.1 L 134.39 0.1 Q 126.87 0.1 126.87 -7.18 L 126.87 -7.18 Q 126.87 -14.06 134.39 -14.06 L 134.39 -14.06 Q 136.69 -14.06 138.49 -13.38 L 138.49 -13.38 L 138.49 -11.04 Q 136.69 -11.82 134.59 -11.82 L 134.59 -11.82 Q 129.56 -11.82 129.56 -7.18 L 129.56 -7.18 Q 129.56 -2.15 134.59 -2.15 L 134.59 -2.15 Q 136.69 -2.15 138.49 -2.93 L 138.49 -2.93 Z M 150.19 -13.96 L 160.78 -13.96 L 160.78 -11.72 L 156.78 -11.72 L 156.78 0 L 154.19 0 L 154.19 -11.72 L 150.19 -11.72 L 150.19 -13.96 Z M 172.97 -13.96 L 175.56 -13.96 L 175.56 0 L 172.97 0 L 172.97 -13.96 Z M 191.7 0 L 189.21 0 L 189.21 -13.96 L 191.8 -13.96 L 199.17 -3.79 L 199.17 -13.96 L 201.66 -13.96 L 201.66 0 L 199.07 0 L 191.7 -10.39 L 191.7 0 Z M 226.44 -6.45 L 226.44 -0.64 Q 224.75 0.1 222.21 0.1 L 222.21 0.1 Q 214.82 0.1 214.82 -7.18 L 214.82 -7.18 Q 214.82 -14.06 222.34 -14.06 L 222.34 -14.06 Q 224.63 -14.06 226.44 -13.38 L 226.44 -13.38 L 226.44 -11.04 Q 224.63 -11.82 222.53 -11.82 L 222.53 -11.82 Q 217.51 -11.82 217.51 -7.18 L 217.51 -7.18 Q 217.51 -2.15 222.25 -2.15 L 222.25 -2.15 Q 222.95 -2.15 223.85 -2.38 L 223.85 -2.38 L 223.85 -6.45 L 226.44 -6.45 Z M 255.89 0 L 253.59 -13.96 L 256.22 -13.96 L 257.71 -3.94 L 261.35 -13.96 L 263.84 -13.96 L 267.24 -4.33 L 268.82 -13.96 L 271.37 -13.96 L 268.74 0 L 266.28 0 L 262.44 -10.96 L 258.32 0 L 255.89 0 Z M 286.09 -7.02 L 286.09 -7.02 Q 286.09 -2.15 290.42 -2.15 L 290.42 -2.15 Q 294.64 -2.15 294.64 -7.02 L 294.64 -7.02 Q 294.64 -11.82 290.42 -11.82 L 290.42 -11.82 Q 286.09 -11.82 286.09 -7.02 Z M 283.41 -6.96 L 283.41 -6.96 Q 283.41 -14.06 290.42 -14.06 L 290.42 -14.06 Q 297.32 -14.06 297.32 -6.96 L 297.32 -6.96 Q 297.32 0.1 290.42 0.1 L 290.42 0.1 Q 283.72 0.1 283.41 -6.96 Z M 313.12 -0.02 L 310.48 -0.02 L 310.48 -13.96 L 316.83 -13.96 Q 321.11 -13.96 321.11 -10.22 L 321.11 -10.22 Q 321.11 -7.7 317.78 -6.04 L 317.78 -6.04 L 322.2 0 L 318.94 0 L 314.69 -6.08 L 314.69 -7.27 Q 318.4 -7.9 318.4 -10.15 L 318.4 -10.15 Q 318.4 -11.69 316.66 -11.69 L 316.66 -11.69 L 313.12 -11.69 L 313.12 -0.02 Z M 334.14 -13.96 L 336.73 -13.96 L 336.73 -2.25 L 342.28 -2.25 L 342.28 0 L 334.14 0 L 334.14 -13.96 Z M 358.03 -2.25 L 360.91 -2.25 Q 365.25 -2.25 365.25 -7.36 L 365.25 -7.36 Q 365.25 -11.72 360.91 -11.72 L 360.91 -11.72 L 358.03 -11.72 L 358.03 -2.25 Z M 360.91 0 L 355.44 0 L 355.44 -13.96 L 360.91 -13.96 Q 367.84 -13.96 367.84 -7.36 L 367.84 -7.36 Q 367.84 0 360.91 0 L 360.91 0 Z" stroke-linecap="round" />
</g>
</g>
</g>
</svg>